<svg width="173" height="48" viewBox="0 0 173 48" fill="none" xmlns="http://www.w3.org/2000/svg">
<path d="M9.384 3.736C14.6 3.736 18.776 4.92 21.912 7.288C25.08 9.624 26.664 13.928 26.664 20.2C26.664 26.376 25.128 30.728 22.056 33.256C18.984 35.752 15 37 10.104 37H0.119995V3.736H9.384ZM7.992 9.448V31.288H10.584C13.176 31.288 15.144 30.488 16.488 28.888C17.832 27.256 18.504 24.36 18.504 20.2C18.504 17.352 18.168 15.144 17.496 13.576C16.824 12.008 15.912 10.936 14.76 10.36C13.608 9.752 12.184 9.448 10.488 9.448H7.992Z" fill="#141414"/>
<path d="M42.2816 10.696C46.1856 10.696 49.2416 11.896 51.4496 14.296C53.6576 16.664 54.7616 19.992 54.7616 24.28C54.7616 27 54.2496 29.384 53.2256 31.432C52.2336 33.448 50.7936 35.016 48.9056 36.136C47.0496 37.256 44.8416 37.816 42.2816 37.816C38.4096 37.816 35.3536 36.632 33.1136 34.264C30.9056 31.864 29.8016 28.52 29.8016 24.232C29.8016 21.512 30.2976 19.144 31.2896 17.128C32.3136 15.08 33.7536 13.496 35.6096 12.376C37.4976 11.256 39.7216 10.696 42.2816 10.696ZM42.2816 16.264C40.7456 16.264 39.5936 16.92 38.8256 18.232C38.0576 19.512 37.6736 21.512 37.6736 24.232C37.6736 27.016 38.0416 29.048 38.7776 30.328C39.5456 31.608 40.7136 32.248 42.2816 32.248C43.8176 32.248 44.9696 31.608 45.7376 30.328C46.5056 29.016 46.8896 27 46.8896 24.28C46.8896 21.496 46.5056 19.464 45.7376 18.184C45.0016 16.904 43.8496 16.264 42.2816 16.264Z" fill="#141414"/>
<path d="M80.7769 37H74.2009L73.8649 33.784C72.0089 36.472 69.4329 37.816 66.1369 37.816C63.8009 37.816 62.0249 37.112 60.8089 35.704C59.6249 34.296 59.0329 32.328 59.0329 29.8V11.512H66.6169V28.84C66.6169 30.088 66.8089 30.968 67.1929 31.48C67.6089 31.96 68.2329 32.2 69.0649 32.2C70.6649 32.2 72.0409 31.208 73.1929 29.224V11.512H80.7769V37Z" fill="#141414"/>
<path d="M110.214 13C108.55 13.672 106.102 14.008 102.87 14.008C104.534 14.712 105.75 15.576 106.518 16.6C107.286 17.624 107.67 18.952 107.67 20.584C107.67 22.216 107.238 23.688 106.374 25C105.51 26.28 104.262 27.288 102.63 28.024C101.03 28.76 99.1416 29.128 96.9656 29.128C95.9416 29.128 94.9656 29.032 94.0376 28.84C93.7816 28.968 93.5736 29.176 93.4136 29.464C93.2856 29.72 93.2216 29.992 93.2216 30.28C93.2216 30.76 93.3976 31.144 93.7496 31.432C94.1336 31.688 94.8856 31.816 96.0056 31.816H99.8456C101.798 31.816 103.51 32.136 104.982 32.776C106.454 33.416 107.59 34.296 108.39 35.416C109.19 36.536 109.59 37.8 109.59 39.208C109.59 41.864 108.438 43.928 106.134 45.4C103.862 46.904 100.566 47.656 96.2456 47.656C93.1416 47.656 90.6936 47.32 88.9016 46.648C87.1096 46.008 85.8456 45.096 85.1096 43.912C84.4056 42.728 84.0536 41.24 84.0536 39.448H90.8696C90.8696 40.216 91.0136 40.824 91.3016 41.272C91.6216 41.72 92.1816 42.056 92.9816 42.28C93.7816 42.504 94.9336 42.616 96.4376 42.616C98.5176 42.616 99.9576 42.36 100.758 41.848C101.558 41.368 101.958 40.664 101.958 39.736C101.958 38.968 101.654 38.36 101.046 37.912C100.438 37.464 99.5256 37.24 98.3096 37.24H94.6136C91.9896 37.24 90.0216 36.776 88.7096 35.848C87.4296 34.888 86.7896 33.672 86.7896 32.2C86.7896 31.272 87.0616 30.376 87.6056 29.512C88.1496 28.616 88.8856 27.88 89.8136 27.304C88.2136 26.44 87.0456 25.432 86.3096 24.28C85.6056 23.096 85.2536 21.672 85.2536 20.008C85.2536 17.16 86.2776 14.904 88.3256 13.24C90.3736 11.544 93.0776 10.696 96.4376 10.696C98.9976 10.76 101.158 10.504 102.918 9.928C104.71 9.352 106.55 8.50399 108.438 7.38399L110.214 13ZM96.6296 15.688C95.4456 15.688 94.5016 16.072 93.7976 16.84C93.1256 17.576 92.7896 18.6 92.7896 19.912C92.7896 21.288 93.1256 22.36 93.7976 23.128C94.5016 23.864 95.4456 24.232 96.6296 24.232C97.8776 24.232 98.8216 23.864 99.4616 23.128C100.134 22.392 100.47 21.288 100.47 19.816C100.47 17.064 99.1896 15.688 96.6296 15.688Z" fill="#141414"/>
<path d="M119.947 37.816C117.739 37.816 116.011 37.192 114.763 35.944C113.547 34.664 112.939 32.856 112.939 30.52V1.38399L120.523 0.567993V30.232C120.523 31.288 120.955 31.816 121.819 31.816C122.267 31.816 122.683 31.736 123.067 31.576L124.555 36.952C123.179 37.528 121.643 37.816 119.947 37.816Z" fill="#141414"/>
<path d="M147.451 29.608C147.451 30.568 147.579 31.272 147.835 31.72C148.123 32.168 148.571 32.504 149.179 32.728L147.595 37.672C146.027 37.544 144.747 37.208 143.755 36.664C142.763 36.088 141.995 35.192 141.451 33.976C139.787 36.536 137.227 37.816 133.771 37.816C131.243 37.816 129.227 37.08 127.723 35.608C126.219 34.136 125.467 32.216 125.467 29.848C125.467 27.064 126.491 24.936 128.539 23.464C130.587 21.992 133.547 21.256 137.419 21.256H140.011V20.152C140.011 18.648 139.691 17.624 139.051 17.08C138.411 16.504 137.291 16.216 135.691 16.216C134.859 16.216 133.851 16.344 132.667 16.6C131.483 16.824 130.267 17.144 129.019 17.56L127.291 12.568C128.891 11.96 130.523 11.496 132.187 11.176C133.883 10.856 135.451 10.696 136.891 10.696C140.539 10.696 143.211 11.448 144.907 12.952C146.603 14.456 147.451 16.712 147.451 19.72V29.608ZM135.979 32.392C137.707 32.392 139.051 31.576 140.011 29.944V25.432H138.139C136.411 25.432 135.115 25.736 134.251 26.344C133.419 26.952 133.003 27.896 133.003 29.176C133.003 30.2 133.259 31 133.771 31.576C134.315 32.12 135.051 32.392 135.979 32.392Z" fill="#141414"/>
<path d="M161.999 10.696C163.823 10.696 165.535 10.968 167.135 11.512C168.735 12.056 170.143 12.824 171.359 13.816L168.575 18.088C166.495 16.776 164.399 16.12 162.287 16.12C161.295 16.12 160.527 16.296 159.983 16.648C159.471 16.968 159.215 17.432 159.215 18.04C159.215 18.52 159.327 18.92 159.551 19.24C159.807 19.528 160.303 19.832 161.039 20.152C161.775 20.472 162.911 20.856 164.447 21.304C167.103 22.072 169.071 23.08 170.351 24.328C171.663 25.544 172.319 27.24 172.319 29.416C172.319 31.144 171.823 32.648 170.831 33.928C169.839 35.176 168.479 36.136 166.751 36.808C165.023 37.48 163.103 37.816 160.991 37.816C158.847 37.816 156.847 37.48 154.991 36.808C153.167 36.136 151.615 35.208 150.335 34.024L154.031 29.896C156.175 31.56 158.431 32.392 160.799 32.392C161.951 32.392 162.847 32.184 163.487 31.768C164.159 31.352 164.495 30.76 164.495 29.992C164.495 29.384 164.367 28.904 164.111 28.552C163.855 28.2 163.359 27.88 162.623 27.592C161.887 27.272 160.719 26.888 159.119 26.44C156.591 25.704 154.703 24.68 153.455 23.368C152.207 22.056 151.583 20.424 151.583 18.472C151.583 17 151.999 15.688 152.831 14.536C153.695 13.352 154.911 12.424 156.479 11.752C158.079 11.048 159.919 10.696 161.999 10.696Z" fill="#141414"/>
</svg>
